<svg xmlns="http://www.w3.org/2000/svg" width="490" height="91" fill="none" viewBox="0 0 490 91">
  <path stroke="#3A4753" stroke-linecap="round" stroke-width="7" d="M4 87V4"/>
  <path stroke="#3A4753" stroke-linecap="round" stroke-width="7" d="M45 87V4"/>
  <path stroke="#3A4753" stroke-linecap="round" stroke-width="7" d="M45 45.5H4"/>
  <path stroke="#3A4753" stroke-linecap="round" stroke-width="7" d="M85 4c15.097 0 27 18.642 27 41.722C112 68.358 100.097 87 85 87"/>
  <path stroke="#3A4753" stroke-linecap="round" stroke-width="7" d="M85 4C69.645 4 57 22.642 57 45.722 57 68.358 69.645 87 85 87"/>
  <path stroke="#3A4753" stroke-linecap="round" stroke-width="7" d="M175 4v83"/>
  <path stroke="#3A4753" stroke-linecap="round" stroke-width="7" d="m124 4 25.203 55.333L175 4"/>
  <path stroke="#3A4753" stroke-linecap="round" stroke-width="7" d="M124 87V4"/>
  <path stroke="#3A4753" stroke-linecap="round" stroke-width="7" d="M213.161 43.524h3.007c7.517 0 13.832 9.924 13.832 21.738C230 77.549 223.685 87 216.168 87H187"/>
  <path stroke="#3A4753" stroke-linecap="round" stroke-width="7" d="M187 4c9.5 0 16.031.482 25.828 0C219.656 4 225 12.676 225 23.762s-5.344 19.762-12.172 19.762H187"/>
  <path stroke="#3A4753" stroke-linecap="round" stroke-width="7" d="M187 87V4"/>
  <path stroke="#3A4753" stroke-linecap="round" stroke-width="7" d="M276 4h-34v41"/>
  <path stroke="#3A4753" stroke-linecap="round" stroke-width="7" d="M242 45v42h34"/>
  <path stroke="#3A4753" stroke-linecap="round" stroke-width="7" d="M242 45h29"/>
  <path stroke="#3A4753" stroke-linecap="round" stroke-width="7" d="M288 52V4h24.889C321.185 4 328 14.877 328 28.118"/>
  <path stroke="#3A4753" stroke-linecap="round" stroke-width="7" d="m328 87-16-33"/>
  <path stroke="#3A4753" stroke-linecap="round" stroke-width="7" d="M328 28c0 13.486-6.815 24.322-15.111 24.322H288V87"/>
  <path stroke="#3A4753" stroke-linecap="round" stroke-width="7" d="M366 45.977h19"/>
  <path stroke="#3A4753" stroke-linecap="round" stroke-width="7" d="M385 45.946v29.522C380 82.388 373.824 87 366.765 87 352.059 87 340 68.087 340 45.023"/>
  <path stroke="#3A4753" stroke-linecap="round" stroke-width="7" d="M340 45.023C340 22.233 351.981 4 366.591 4c7.013 0 13.441 4.558 18.409 11.395"/>
  <path stroke="#3A4753" stroke-linecap="round" stroke-width="7" d="M431 4h-34v41"/>
  <path stroke="#3A4753" stroke-linecap="round" stroke-width="7" d="M397 45v42h34"/>
  <path stroke="#3A4753" stroke-linecap="round" stroke-width="7" d="M397 45h29"/>
  <path stroke="#3A4753" stroke-linecap="round" stroke-width="7" d="M443 87V4"/>
  <path stroke="#3A4753" stroke-linecap="round" stroke-width="7" d="m443 4 43 83"/>
  <path stroke="#3A4753" stroke-linecap="round" stroke-width="7" d="M486 87V4"/>
</svg>
