<svg xmlns="http://www.w3.org/2000/svg" width="322" height="92" fill="none" viewBox="0 0 322 92">
  <path stroke="#3A4753" stroke-linecap="round" stroke-width="7" d="M318 5h-34v41"/>
  <path stroke="#3A4753" stroke-linecap="round" stroke-width="7" d="M284 46v42h34"/>
  <path stroke="#3A4753" stroke-linecap="round" stroke-width="7" d="M284 46h29"/>
  <path stroke="#3A4753" stroke-linecap="round" stroke-width="7" d="M252 46.977h19"/>
  <path stroke="#3A4753" stroke-linecap="round" stroke-width="7" d="M271 46.946v29.522C266 83.388 259.824 88 252.765 88 238.059 88 226 69.087 226 46.023"/>
  <path stroke="#3A4753" stroke-linecap="round" stroke-width="7" d="M226 46.023C226 23.233 238.247 5 253.182 5c7.169 0 13.74 4.558 18.818 11.395"/>
  <path stroke="#3A4753" stroke-linecap="round" stroke-width="7" d="M214 5h-34v41"/>
  <path stroke="#3A4753" stroke-linecap="round" stroke-width="7" d="M180 46v42h34"/>
  <path stroke="#3A4753" stroke-linecap="round" stroke-width="7" d="M180 46h29"/>
  <path stroke="#3A4753" stroke-linecap="round" stroke-width="7" d="M168 46.5c0 22.897-9.547 41.5-23.434 41.5H122V5"/>
  <path stroke="#3A4753" stroke-linecap="round" stroke-width="7" d="M122 5h22.566C158.453 5 168 22.718 168 44.524"/>
  <path stroke="#3A4753" stroke-linecap="round" stroke-width="7" d="M59 88 83.5 5 110 88"/>
  <path stroke="#3A4753" stroke-linecap="round" stroke-width="7" d="M65 68.597h37"/>
  <path stroke="#3A4753" stroke-linecap="round" stroke-width="7" d="M4 88V4"/>
  <path stroke="#3A4753" stroke-linecap="round" stroke-width="7" d="m4 4 43 84"/>
  <path stroke="#3A4753" stroke-linecap="round" stroke-width="7" d="M47 87V4"/>
</svg>
